<svg xmlns="http://www.w3.org/2000/svg" width="100%" height="100%" viewBox="0 0 519.3 519.3"><title>Mesa de trabajo 1</title><path d="M259.6,0C116.2,0,0,116.2,0,259.6S116.2,519.3,259.6,519.3,519.3,403,519.3,259.6,403,0,259.6,0Zm0,511C120.8,511,8.3,398.5,8.3,259.6S120.8,8.3,259.6,8.3,511,120.8,511,259.6,398.5,511,259.6,511Z" style="fill:#fff"/><path d="M70.5,297.7c-2.5,0-3.3.5-3.3.5s.2-1.5.2-2.1c0-7-9.2-5.9-10.7-5.9s-4.2-1.1-7.7-1.1c-6.7,0-7.2,5.9-7.2,7.1a5.7,5.7,0,0,0-3.4-1.4c-5.8,0-7.4,8.1-7.9,9.7s-3.2,5-3.5,9,4.8,6.2,4.8,6.2a7.2,7.2,0,0,0-2.4,5c0,3.7,6.1,7.8,7.4,8.7s4.9,6.5,9.2,6.4a6.1,6.1,0,0,0,5.2-3.2c0,1.1,1.6,4,6.2,4,2.1,0,7.3-4.3,8.9-4.8,6.5-2.3,8.8-6.1,8.8-8.5a6.6,6.6,0,0,0-1.6-4.1c2.1,0,5.6-1,5.6-6s-1.9-6.7-1.9-8.4C77,300.2,73,297.7,70.5,297.7ZM48.8,292c1.3,0,5.8.9,7.5.9s8.5-.9,8.5,3.3c0,2.6-4.8,8.5-6.9,10.9a9.3,9.3,0,0,0-2.1-1c-.9-3.7-1.6-6.3-1.6-6.3s-1.2,2.4-2.6,5.9l-2,.5c-1.7-2.9-5-8.7-5-10.5S45.4,292,48.8,292ZM30.2,311.5c.4-1.3,2.7-5.2,3.3-6.8s1.8-8.4,5.8-7c2.4.8,6.4,7.1,8,9.9a9.3,9.3,0,0,0-2.3,2.5l-6.4-.3,5.1,4.6c0,.2,0,.4,0,.6s0,.4,0,.6c-3.3.7-9.7,1.9-11.3,1.4S29.1,314.7,30.2,311.5Zm18.3,23.8c-1.2,1.5-2.9,2.4-5.6.4-1.1-.8-4-4.3-5.4-5.3s-7.3-4.5-4.8-7.8,8.3-3.6,11.6-4.3a9.2,9.2,0,0,0,1.2,2.2c-1.5,3.8-2.7,6.6-2.7,6.8s2.9-1.5,6.7-3.8l1.3.4C50.5,327.1,49.6,333.8,48.5,335.3Zm-1.1-20.5a5.6,5.6,0,1,1,5.6,5.5A5.5,5.5,0,0,1,47.3,314.8Zm22.6,16c-1.1.8-5.2,2.5-6.7,3.6s-6.4,5.7-8.9,2.2-1-9.3-.7-12.6l1.2-.2a71.3,71.3,0,0,0,6,4.8c.1-.1-.6-3.2-1.5-7.3a9.3,9.3,0,0,0,1.4-1.8c2.9,1.3,9.4,4.3,10.5,5.8S72.7,328.9,70,330.8Zm4-10.6c-2.4.7-9-2-12.1-3.3a9.6,9.6,0,0,0,.2-1.1l6-3.9-6.7-.6a9.3,9.3,0,0,0-1.6-2.6c2.2-2.4,7-7.5,8.8-8.1s3.8-.3,4.8,3c.4,1.3.8,5.8,1.3,7.5S78,319,74,320.2Z" style="fill:#fff"/><path d="M495.4,313.5c-.3-4-3-7.4-3.5-9s-2.1-9.7-7.9-9.7a5.7,5.7,0,0,0-3.4,1.4c0-1.2-.4-7.1-7.2-7.1-3.5,0-6.2,1.1-7.7,1.1s-10.7-1.1-10.7,5.9c0,.6.2,2.1.2,2.1s-.8-.5-3.3-.5-6.5,2.5-6.5,11c0,1.7-1.9,4-1.9,8.4s3.5,6,5.6,6a6.6,6.6,0,0,0-1.6,4.1c0,2.4,2.3,6.2,8.8,8.5,1.6.6,6.8,4.8,8.9,4.8,4.5,0,6.2-2.9,6.2-4a6.1,6.1,0,0,0,5.2,3.2c4.3.1,7.9-5.6,9.2-6.4s7.4-5,7.4-8.7a7.2,7.2,0,0,0-2.4-5S495.7,318.7,495.4,313.5Zm-29.4-20.5c1.8,0,6.2-.9,7.5-.9,3.4,0,4.3,1.8,4.3,3.7s-3.3,7.6-5,10.5l-2-.5c-1.5-3.4-2.5-5.9-2.6-5.9s-.8,2.6-1.6,6.3a9.3,9.3,0,0,0-2.1,1c-2.1-2.4-6.9-8.3-6.9-10.9C457.4,292,464.1,292.9,465.9,292.9Zm-17.7,27.3c-4-1.2-1.2-7.4-.7-9.1s.9-6.2,1.3-7.5c1-3.3,3-3.5,4.8-3s6.6,5.7,8.8,8.1a9.3,9.3,0,0,0-1.6,2.6l-6.7.6,6,3.9a9.8,9.8,0,0,0,.2,1.1C457.3,318.2,450.6,320.9,448.3,320.2Zm19.6,16.4c-2.4,3.4-7.4-1.2-8.9-2.2s-5.6-2.8-6.7-3.6c-2.8-2-2.4-3.9-1.3-5.5s7.5-4.5,10.5-5.8a9.3,9.3,0,0,0,1.4,1.8c-.9,4.1-1.6,7.2-1.5,7.3a71.1,71.1,0,0,0,6-4.8l1.2.2C468.8,327.3,469.3,334.6,467.8,336.6Zm1.5-16.3a5.5,5.5,0,1,1,5.6-5.5A5.6,5.6,0,0,1,469.3,320.4Zm15.5,9.9c-1.4,1.1-4.3,4.5-5.4,5.3-2.7,2.1-4.5,1.2-5.6-.4s-2-8.2-2.4-11.5l1.3-.4c3.8,2.3,6.7,3.9,6.7,3.8s-1.1-3-2.7-6.8a9.2,9.2,0,0,0,1.2-2.2c3.3.7,10.1,2.4,11.6,4.3S486.2,329.2,484.8,330.3Zm5.1-13.6c-1.7.6-8-.7-11.3-1.4,0-.2,0-.4,0-.6s0-.4,0-.6l5-4.6-6.4.3a9.3,9.3,0,0,0-2.3-2.5c1.7-2.8,5.6-9.1,8-9.9,4-1.3,5.3,5.3,5.8,7s2.9,5.6,3.3,6.8C493.1,314.7,491.7,316.1,489.9,316.7Z" style="fill:#fff"/><path d="M52.5,229.6a24.3,24.3,0,1,0-24.3-24.3A24.3,24.3,0,0,0,52.5,229.6Zm-11.3-6.1a12.9,12.9,0,0,1-1.7-5.1l3.4,1.6a21.7,21.7,0,0,0,3.7,5.9A21.3,21.3,0,0,1,41.1,223.5Zm15,2.9a21.5,21.5,0,0,1-3.6.3l-2.5-.2a27.6,27.6,0,0,1-4.4-5.5,52.3,52.3,0,0,0,7.6,2.2l3.2,2.9Zm-1.4-4.4L64,200.4h3.4c-.2,10.4-4.3,17.1-9.8,24.1Zm19.2-16.7a21.4,21.4,0,0,1-14.6,20.3c5.5-7,9.8-14.3,10.1-25l4.1.4A21.5,21.5,0,0,1,73.9,205.4Zm-2.5-10a21.3,21.3,0,0,1,1.5,3.5,85.3,85.3,0,0,0-9.2-.5c-.8-.6-3.3-2.4-6.4-4.4a12.1,12.1,0,0,1,5.5-1.1C65.9,192.9,69.7,194.6,71.4,195.4Zm-7-7.8a21.5,21.5,0,0,1,5.1,4.8,20.1,20.1,0,0,0-6.7-1.4c-3.6,0-6.1.9-7.4,1.9l-5-3c2.4-2.3,6.3-2.9,9.3-2.9A16.4,16.4,0,0,1,64.4,187.6Zm-11.9-3.6a21.4,21.4,0,0,1,6.4,1c-4.7.1-8.2,1.5-10.3,3.9a37.8,37.8,0,0,0-5.7-2.5A21.3,21.3,0,0,1,52.5,183.9Zm-12.1,3.8c5.1.6,16.7,8.4,21.7,12.1l-2.8,6.5c-4.1-2.5-18.5-11.2-24.4-13.1A21.5,21.5,0,0,1,40.3,187.7Zm-6.6,7.2c3.9,1,16.7,8.3,24.7,13.2l-1.9,4.3c-6.6-.3-22-8.1-24.9-12.3A21.3,21.3,0,0,1,33.7,194.9Zm-2,15.7a20.2,20.2,0,0,1-.5-8c5.1,5.2,18.5,11,24.6,11.8l-2.9,6.8C44.2,219.3,34.7,214.4,31.7,210.6Zm5.6,6.7a16.7,16.7,0,0,0,.6,3.7,21.4,21.4,0,0,1-4.7-6.3A35.2,35.2,0,0,0,37.3,217.3Z" style="fill:#fff"/><path d="M466.9,229.6a24.3,24.3,0,1,0-24.3-24.3A24.3,24.3,0,0,0,466.9,229.6Zm2.5-3-2.5.2a21.5,21.5,0,0,1-3.6-.3l-.2-.2,3.2-2.9a52.3,52.3,0,0,0,7.6-2.2A27.6,27.6,0,0,1,469.4,226.6Zm-7.6-2c-5.5-7-9.6-13.8-9.8-24.1h3.4l9.2,21.6Zm16.4-1.2a21.2,21.2,0,0,1-5.4,2.4,21.7,21.7,0,0,0,3.7-5.9l3.4-1.6A12.9,12.9,0,0,1,478.2,223.5Zm3.2-2.5a16.6,16.6,0,0,0,.6-3.7,35.4,35.4,0,0,0,4.1-2.7A21.5,21.5,0,0,1,481.5,221Zm6.8-15.7a21.4,21.4,0,0,1-.7,5.2c-3,3.8-12.5,8.7-21.2,10.6l-2.9-6.8c6-.8,19.5-6.7,24.6-11.8A21.7,21.7,0,0,1,488.3,205.4Zm-.7-5.2c-3,4.2-18.3,12-24.9,12.3l-1.9-4.3c8.1-4.9,20.8-12.2,24.7-13.2A21.2,21.2,0,0,1,487.6,200.2Zm-3.1-7c-6,1.9-20.4,10.6-24.4,13.1l-2.8-6.5c5-3.6,16.7-11.5,21.7-12.1A21.5,21.5,0,0,1,484.5,193.2Zm-17.6-9.3a21.3,21.3,0,0,1,9.6,2.3,37.7,37.7,0,0,0-5.7,2.5c-2.1-2.4-5.7-3.7-10.3-3.9A21.4,21.4,0,0,1,466.9,183.9ZM455,187.6a16.4,16.4,0,0,1,4.7-.7c3,0,6.9.5,9.3,2.9l-5,3c-1.3-1-3.7-1.9-7.4-1.9a20.1,20.1,0,0,0-6.7,1.4A21.5,21.5,0,0,1,455,187.6Zm-7,7.8c1.7-.8,5.5-2.4,8.6-2.4a12.1,12.1,0,0,1,5.5,1.1c-3.1,2.1-5.6,3.8-6.4,4.4a85.3,85.3,0,0,0-9.2.5A21.3,21.3,0,0,1,447.9,195.4Zm-2,5.6,4.1-.4c.3,10.8,4.6,18,10.1,25A21.4,21.4,0,0,1,445.9,201Z" style="fill:#fff"/><path d="M232.9,228.9c-.7,0-4.9,9-17.1,9-4.8,0-9.8-1.7-11.5-5.7a7,7,0,0,0,6.8-6.5c0-6.7-15.6-10.4-20-10.4v47.6c6.5,0,14.3-6.8,17.1-8.9,6.7-5.1,21.5-14.3,29.8-17.9C237.9,234.7,233.6,228.9,232.9,228.9Z" style="fill:#fff"/><circle cx="185.2" cy="149.1" r="5.9" style="fill:#fff"/><path d="M305.5,152.5l2.7-3.7h-4.9C303.2,150.9,303.2,152.2,305.5,152.5Z" style="fill:#fff"/><path d="M259.6,84.9A174.7,174.7,0,1,0,434.3,259.6,174.7,174.7,0,0,0,259.6,84.9Zm83.1,79.4c.4,3.1-1.9,13.7-12.4,13.7-7,0-10.4-6-10.4-6l2.9-4s2.5,2.9,8.5,2.9C340,171,342.8,164.3,342.8,164.3Zm22,105.5h0l-1,.5-1.5.6s2.4-3.8,2.4-6.8c0-7.4-8.1-11.2-11.7-11.2h-1.2l-1,.3h-.2a9,9,0,0,0-2.1,1h0l-.9.7h0a6.9,6.9,0,0,0-2,2.9,5.2,5.2,0,0,0-.3,1.7c0,8.6,18,17.9,18,37.3,0,9-6.4,19.1-24.3,19.1-19.7,0-29.2-11.4-30.1-11.4s6.2,25.6,27.4,25.6a25.8,25.8,0,0,0,10.4-2.6c-8.9,8.5-15.6,25-15.6,34v19.5c0,5.6-2.5,7.5-5.9,7.5s-7.7,4.5-6.9,7.4h-.1l-.7-.2h0a6.4,6.4,0,0,1-4.2-4.2h0l-.2-.5h0v-1.7c0-.2,0-.4,0-.6-10.1,0-10.3,6.8-10.3,9.4-4.3-1.5-5.2-6.7-5.2-9.3-9.6,0-13,1.7-14.1,7.7l-1.2-.9h0l-.5-.6h0l-.5-.6h0l-.4-.6h0l-.3-.6h0l-.3-.6h0l-.2-.6h0l-.2-.6h0l-.2-.6h0v-.6h0v-.5h0v-.5h0v-.4h0v-.8c0-.1,0-.2,0-.3s-1.5-1.1-1.5-4.5c0-14.7,23.4-13,25.4-13s5.1-6,5.1-14.1c0-4.5-1.7-8.9-3.1-9.9-7.3,0-16.4-4.7-26.3-21.7-3.9,0-21.4,5.4-21.4,14.9,0,5.1,4.1,9.1,16.8,12.2-17.3,2.9-20.8,12.3-22.3,18.3-2.5,10.6-4.7,14.3-13.1,15.8-5.4,1-8.4,4.5-7.6,8.8l.2.9c-6.8-2.6-8-7-8-9.5-2.4,0-12.2,1.1-11.1,11.4-5.6-2.6-6.6-8.8-6.6-11.6-6,0-12.1,2-11.3,8.7h0c0,.3.1.6.1.9-2.4-.7-5.7-4.4-5.7-9.3a10.6,10.6,0,0,1,.7-3.3,13.1,13.1,0,0,1-1.5-6.6c0-8.9,10.7-11.9,16.2-11.9s8.3.9,12.9.9,14.8-3.9,14.8-27.5c0,0-9.5-3.8-9.5-12,0-16.7,32.3-38.4,39.7-40.5,0,0-7.8-14.3-8.7-14.3s-10.5,14.1-32.2,22c0,0-2.8-5.2-10.2-5.2s-17.1,5.8-15.9,14.6a5.8,5.8,0,0,1-3.7-1v34h3.3v10.4h-5.6c1.5.7,5.2,3.1,5.2,7.7s-4.4,8.1-8.2,8.1-8.8-2.8-8.8-8c0-.3,0-.5,0-.8v-1.8l.2-.4v-.2l.2-.5v-.2l.3-.6h0a9.4,9.4,0,0,1,3.7-3.3h-5.8V334.4h3.5V296.1l-.6-.7h0l-.2-.2h-.1l-.2-.2h-.1v-.2h-.1v-.3H178l-.2-.5v-6c0-.4,0-.7,0-1.1a8.5,8.5,0,0,0-5.7,4.3,10.4,10.4,0,0,1-.5-1.2h0l-.2-.7v-.2l-.2-.7v-1.4a11.2,11.2,0,0,1-.1-1.2c0-3,1-4.3,2.3-6.2,0,0-2.8-.4-6,2.5,0-.6,0-1.2,0-1.7h0c0-.6.1-1.1.1-1.7h0q.1-.8.2-1.5h0l.3-1.3h0c.8-2.8,2.1-4.3,3.4-5h0l.5-.3h0l.5-.2H173c.8-3,5.7-6.5,6.5-6.5V212.3c-8.1,0-7-7.3-7-8.3s-3.1-2.5-3.1-5.3,3.3-4.2,3.3-5.6-2.7-2-2.7-5.4,4.8-8.2,9.4-8.2v-3.1a13.2,13.2,0,0,1-7.4-2.6s4.8-.7,6.2-2.9c-4.8,0-17.4-9.5-17.4-21.8,0-.4,0-.8.1-1.3v-.2c0-.4.1-.9.2-1.3V146l.3-1.4v-.2l.5-1.5h0l.6-1.5v-.2l.7-1.5v-.2l.9-1.5v-.2a27.2,27.2,0,0,1,2.2-3.1h0l1.3-1.4h.1l1.4-1.3h.1a23.9,23.9,0,0,1,3.4-2.4h0l1.9-1h.2l2-.8h.2l2.1-.6h0a23.9,23.9,0,0,1,5.4-.6c15.3,0,24.2,12.6,24.2,22.9,0,11.9-10.4,20.1-18.2,25.3v5.2c2.9,0,9.9,7.4,18.5,12.5a26.9,26.9,0,0,0,5,2l3.4,1h.3l1.1.3h.4l1.8.4.7.2.9.2.9.2h.8l1.7.3h.5l1.4.2h.6l1.4.2h.4l1.9.2h4.4c1.3,0,9.9-14.3,9.9-18.4-10.8-5.1-7.9-15.3-5.6-17.2l.2.6c.6,1.3,2.4,4.2,7.5,4.2h.6l2.2-.4h0l1.1-.3h0l1-.4h.1l1-.5h.1l.9-.5h.2l.8-.6.2-.2.7-.6.3-.3.6-.6.3-.3.5-.6.3-.4.4-.6.3-.5.3-.5.3-.6.2-.5.2-.7V156a9.8,9.8,0,0,0,.1-1.2c0-6.7-6.4-9.7-9.9-8.2,4.2-9.9,13.7-9.8,17.9-9.8h.9a5,5,0,0,1-1-3.1c0-6.7,11.5-12.5,13.8-13.5,0,17.9,32.4,20.4,36.7,21.2a11.1,11.1,0,0,0,3.5,5.3c1.3,1,5.9,2.4,7.3,5.9l-3.2,5.1-2.8-1.3s.3,4-.3,4.3-7.7,10.8-7.7,10.8,2-5.3-5-5.3c-5,0-8.6,5.3-8.6,8.1s1.5,4.2,5.7,4.2a16.1,16.1,0,0,0,4.8-.6c-1.5,6.3-.5,10.9.3,16,0,0-4.6-6.3-12.4-6.3-4.8,0-8.4,3.8-8.4,12.2s4.9,13.7,11.1,13.7,6.3-5.4,6.3-5.4a14.5,14.5,0,0,1,4.3,10.4c0,7.3-7.7,13.4-14.1,13.4a8.1,8.1,0,0,1-4.7-1.2l-.9,10c2.9,3.1,6,10.5,6.6,17.2.8,9.2,2,16.1,6.2,28.2a22,22,0,0,0,1.7,3.7l1,1.5v.2l1,1.3v.2l1.1,1.2h.1l1.2,1.1h.1a24.3,24.3,0,0,0,7.2,4.1h.2l1.2.4.5.2,1.1.3.6.2,1,.2h6.2c6.8,0,11.6-5.1,11.6-10.8s.2-10.2-8.2-19.7-14.3-16.4-14.3-28.6,9.2-19.1,20.2-29,11.1-12.7,11.1-15.6-2.3-8.9-8.2-8.9h-3.1l-.6.2h-.2l-.7.3h-.1l-.5.2h-.2l-.4.2h-.2l-.4.3h-.2l-.4.4h0l-.4.4h-.1l-.3.4h-.1l-.2.4h-.1l-.2.4h0l-.5,1h0l-.2.5a10.1,10.1,0,0,0-.5,3.1s-1.1-1.3-1.1-4.4,3.4-17.7,22.4-17.7c11.6,0,20.3,8.7,20.3,22.1,0,11.6-10.7,19.1-21.6,27.1-14.9,10.9-18.1,20.1-17.5,20.1s8.6-9.9,20.2-9.9,20.1,6.4,20.1,17.4C377.8,255.9,373.7,265.5,364.7,269.8Z" style="fill:#fff"/><path d="M302.6,156.4l1.2-1.6c-4.1-.6-4.4-3.8-4.1-6h-6.8C291.3,152.6,299.8,156.4,302.6,156.4Z" style="fill:#fff"/><path d="M120.7,120.9c12.5,0,23.1-10.7,23.1-22.2a24.6,24.6,0,0,0-1.4-6.9l-5.5,1.6a20.7,20.7,0,0,1,1.1,5.4c0,7.4-6.3,14.1-12.4,14.1-9.1,0-20.9-11.8-20.9-20.9,0-7.1,6.9-13.2,13.1-13.2a32.3,32.3,0,0,1,6.7.9l1.2-5.1a22.4,22.4,0,0,0-6.2-.9c-13.4,0-22.8,10-22.8,22.9C96.6,107.1,105,120.9,120.7,120.9Z" style="fill:#fff"/><polygon points="171.1 89.8 162.3 71.2 175.9 64.6 184.9 83.6 194.4 78.6 174.9 37.7 165.2 42.4 173.5 59.2 160 65.8 151.7 48.4 142 53.3 161.6 94.6 171.1 89.8" style="fill:#fff"/><polygon points="237 69.1 235.9 63.7 218.7 67.3 216 52.2 231.7 49 230.8 43.6 214.6 46.9 212 33.1 228.9 29.9 227.6 24.4 200.4 29.9 209.4 74.7 237 69.1" style="fill:#fff"/><polygon points="362.7 91.2 346.9 83.4 354.1 69.8 368.5 77 371 72.2 356.4 64.8 362.8 52.4 378 60.3 380.4 55.2 355.6 42.7 335.1 83.5 360.2 96.1 362.7 91.2" style="fill:#fff"/><polygon points="280.7 62.5 263.5 62.5 264.1 22.7 253.5 22.7 252.8 68.2 280.7 68.7 280.7 62.5" style="fill:#fff"/><path d="M400.9,128.6l17-50.3-46.8,24.1,4.8,4.4,10.7-5.6,9.8,8.6-4,11.5Zm-9.5-30,10.8-5.7-4,11.6Z" style="fill:#fff"/><path d="M310.5,75.9a15,15,0,0,0,14.8-14.8c0-12.2-15.1-12.9-15.1-20.6,0-2.2,1.8-5.9,5.7-5.9s7.6,5.1,8.1,8.6l5.3-1.9a16.2,16.2,0,0,0-15.9-13.1c-7.6,0-14.2,6.1-14.2,13.7,0,12,14.8,12.7,14.8,21a6.5,6.5,0,0,1-6.5,6.6c-4.4,0-7.3-3.7-8.4-8.3l-5.8,2.6A17.5,17.5,0,0,0,310.5,75.9Z" style="fill:#fff"/><polygon points="110.6 407.5 117.4 414.1 119.3 411.9 108.6 401.6 91.2 419.8 95.4 423.8 103.4 415.3 109.4 421.2 111.3 419.2 105.4 413.1 110.6 407.5" style="fill:#fff"/><path d="M128.8,422.1c-6.5,0-12.6,7.3-12.6,13.8a12.5,12.5,0,0,0,12.2,12.6c5.7,0,13.5-6.6,13.5-13.8S136.2,422.1,128.8,422.1Zm-2.7,22.7a5.8,5.8,0,0,1-5.6-5.4c0-5.5,7-13.6,11.4-13.6a5.3,5.3,0,0,1,5.4,5.3C137.3,436.4,130.9,444.9,126.1,444.9Z" style="fill:#fff"/><path d="M155.3,439.7c-6.4,1.2-11,9.6-9.8,16a12.5,12.5,0,0,0,14.4,10c5.6-1.1,12-9,10.6-16.1S162.5,438.3,155.3,439.7Zm1.7,22.8a5.8,5.8,0,0,1-6.5-4.2c-1-5.4,4.2-14.7,8.5-15.6a5.3,5.3,0,0,1,6.3,4.2C166.3,452,161.7,461.6,157,462.5Z" style="fill:#fff"/><polygon points="180.9 452.7 185.2 454 177.9 475.1 183.4 477.2 190.8 455.9 195.3 457.7 196.2 454.8 181.9 449.7 180.9 452.7" style="fill:#fff"/><path d="M223.1,466.7c0-5.2-5.8-6.7-5.8-6.7l-10.9-2.3-4.9,24.7s9.4,2.6,13,2.6a6.9,6.9,0,0,0,7.1-6.9c0-4.2-2.8-5.4-2.8-5.4S223.1,472,223.1,466.7Zm-11.3,15a39.3,39.3,0,0,1-4.3-1l1.8-8.5s6.5.3,6.5,4.8S212.5,481.8,211.8,481.8Zm1.8-11.5a24.3,24.3,0,0,1-3.8-.7l1.6-7.7s6,.3,6,3.9S214.6,470.3,213.5,470.3Z" style="fill:#fff"/><path d="M423.1,409.8c-3.5-2.3-6-.6-6-.6s1.7-4.1-2.7-7-8.8,1.2-8.8,1.2l-7.9,7.9,18,17.6s7.3-6.4,9.3-9.4A6.9,6.9,0,0,0,423.1,409.8Zm-13.6,5.2-5.6-5.5s3.5-4.8,6.5-2.8,2.3,4.7,1.7,5.6A24.2,24.2,0,0,1,409.5,414.9Zm11.3,5a39.3,39.3,0,0,1-3.2,3.1l-6.1-6.2s3.8-5.3,7.6-2.8S421.1,419.3,420.7,419.9Z" style="fill:#fff"/><path d="M229,487.9h3.6l2.8-5.8,7.5.4,2,6.7h5.8l-9-27.3Zm7.7-8.4,3.2-6.6,2,6.6Z" style="fill:#fff"/><polygon points="266.7 464.1 260.7 464.1 261.7 489 277.2 489 277.2 485.9 267.3 485.9 266.7 464.1" style="fill:#fff"/><polygon points="293.8 483.2 290.3 461.5 284.6 462.4 288.5 487.4 303.8 485.1 303.3 481.6 293.8 483.2" style="fill:#fff"/><path d="M344.2,469.8c-6.4,0-9.5-8.7-9.5-12.7a7.5,7.5,0,0,1,7.2-7.6,9.5,9.5,0,0,1,5.5,2.2l1.8-2.6a12.5,12.5,0,0,0-7.2-2.1A12.7,12.7,0,0,0,329.5,460c.2,6.7,4.6,13.4,13,13.4,6.1,0,12.3-4.7,12.3-11.6l-3.1-.4C351.7,466.4,348.3,469.8,344.2,469.8Z" style="fill:#fff"/><polygon points="371.6 456.6 360.5 437.4 355.7 440.4 368.1 462.3 381.3 454.7 379.8 452 371.6 456.6" style="fill:#fff"/><path d="M390,417.9l-2.6,2,10.4,13.8a6.1,6.1,0,0,1,1.3,2.8c0,2.5-3.3,5.2-5.3,5.2a4.3,4.3,0,0,1-3.1-1.7l-10.8-14.7-4.7,3.5,11,14.6s2.1,3.1,5.5,3.1,10.9-5,10.9-9.5a8.3,8.3,0,0,0-1.9-4.9Z" style="fill:#fff"/></svg>