<?xml version="1.0" encoding="utf-8"?>
<svg id="master-artboard" viewBox="0 0 901.6403198242188 418.7865295410156" version="1.1" xmlns="http://www.w3.org/2000/svg" x="0px" y="0px" style="enable-background:new 0 0 336 235.2;" width="100%" height="100%" xmlns:xlink="http://www.w3.org/1999/xlink"><g transform="matrix(3.157888391295393, 0, 0, 3.157888391295393, -0.000017289477909798734, 159.27916308363623)"><g>
	<g>
		<g>
			<defs>
				<path d="M 0 0 L 0 31.739 L 285.420013 31.739 L 285.420013 0" id="SVGID_1_"/>
			</defs>
			<clipPath id="SVGID_2_">
				<use overflow="visible" xlink:href="#SVGID_1_"/>
			</clipPath>
			<g clip-path="url(#SVGID_2_)">
				<defs>
					<path d="M 0 0 L 285.519989 0 L 285.519989 31.540001 L 0 31.540001 L 0 0" id="SVGID_3_"/>
				</defs>
				<clipPath id="SVGID_4_">
					<use overflow="visible" xlink:href="#SVGID_3_"/>
				</clipPath>
				<path clip-path="url(#SVGID_4_)" d="M234.779,20.352l4.808-14.081l4.65,14.081H234.779 M184.955,14.897V1.921h2.252      c3.723,0,6.22,2.42,6.22,6.798c0,2.414-1.889,6.178-5.806,6.178H184.955z M160.62,20.352l4.807-14.081l4.651,14.081H160.62z       M285.42,1.302h-14.246v0.619h2.354v22.287l-14.49-22.906h-6.226v0.619h2.348v28.183h-3.937L241.134,0l-10.418,30.104h-3.71      V1.921h2.149V1.302h-5.622l-8.001,23.506l-8.389-23.506h-5.716v0.619h2.353v28.183c-1.992,0-4.322,0-4.322,0      c-1.484,0-2.705-1.324-2.705-3.408v-4.374c0-3.611-1.265-6.493-5.287-7.105c3.347-0.456,5.803-3.443,5.803-6.662      c0-4.094-3.035-7.252-9.071-7.252h-8.979v0.619h2.348v28.184l-4.502-0.001L166.974,0l-10.417,30.104h-1.937v0.62h5.372v-0.62      h-2.703l3.118-9.132h9.875l3.017,9.132h-3.698v0.62c11.42,0,7.86,0,18.99,0l0.001-0.619h-3.638V15.517h2.666      c3.659,0,5.578,1.488,5.578,5.144v2.563c0,6.044,3.892,7.5,5.972,7.5h7.793v-0.62h-2.563V4.03l9.866,27.008l9.35-27.889v26.954      h-2.353v0.62h12.888v-0.62h-2.703l3.119-9.132h9.875l3.016,9.132h-3.697v0.62h14.383v-0.62h-2.364V2.899l18.369,28.84V1.921      h5.527v28.183h-2.356v0.62h8.101v-0.62h-2.356V1.921h2.356V1.302z" style="fill: rgb(255, 255, 255);"/>
				<path clip-path="url(#SVGID_4_)" d="M128.437,30.852c-7.819,0-8.201-10.216-8.201-14.818c0-4.567,0.519-14.818,8.201-14.818      c7.667,0,8.245,10.252,8.245,14.818C136.682,20.599,136.243,30.852,128.437,30.852 M128.437,0.596      c-7.694,0-12.748,8.565-12.748,15.438c0,7.5,5.47,15.396,12.748,15.396c7.279,0,12.749-7.415,12.749-15.396      C141.186,9.16,135.719,0.596,128.437,0.596z" style="fill: rgb(255, 255, 255);"/>
				<path d="M 106.491997 1.92 L 108.847 1.921 L 108.847 30.104 L 106.491997 30.104 L 106.491997 30.723999 L 114.592003 30.723999 L 114.592003 30.104 L 112.236 30.104 L 112.236 1.921 L 114.592003 1.921 L 114.592003 1.302 L 106.491997 1.302 L 106.491997 1.92" clip-path="url(#SVGID_4_)" style="fill: rgb(255, 255, 255);"/>
				<path clip-path="url(#SVGID_4_)" d="M66.566,14.896V1.921h2.252c3.723,0,6.219,2.42,6.219,6.798      c0,2.414-1.887,6.177-5.806,6.177H66.566 M81.07,30.354c-1.485,0-2.706-1.365-2.706-3.45v-4.582      c0-3.625-1.265-6.493-5.288-7.105c3.348-0.456,5.804-3.444,5.804-6.662c0-4.094-2.948-7.252-9.071-7.252h-8.98v0.619h2.348      v28.184h-2.348v0.619h9.373l0.001-0.619h-3.637V15.517h2.665c3.66,0,5.579,1.547,5.579,5.144v2.854c0,5.949,3.891,7.5,5.971,7.5      c1.333,0,1.926-0.411,2.382-0.831l-0.369-0.509C82.118,30.316,81.397,30.354,81.07,30.354z" style="fill: rgb(255, 255, 255);"/>
				<path clip-path="url(#SVGID_4_)" d="M46.99,30.852c-7.819,0-8.203-10.216-8.203-14.818c0-4.567,0.521-14.818,8.203-14.818      c7.667,0,8.245,10.252,8.245,14.818C55.235,20.599,54.796,30.852,46.99,30.852 M46.99,0.596      c-7.694,0-12.748,8.565-12.748,15.438c0,7.5,5.469,15.396,12.748,15.396c7.279,0,12.749-7.415,12.749-15.396      C59.739,9.16,54.271,0.596,46.99,0.596z" style="fill: rgb(255, 255, 255);"/>
				<path d="M 25.003 1.92 L 27.358 1.921 L 27.358 30.104 L 25.003 30.104 L 25.003 30.723999 L 33.102001 30.723999 L 33.102001 30.104 L 30.747 30.104 L 30.747 1.921 L 33.102001 1.921 L 33.102001 1.302 L 25.003 1.302 L 25.003 1.92" clip-path="url(#SVGID_4_)" style="fill: rgb(255, 255, 255);"/>
				<path clip-path="url(#SVGID_4_)" d="M15.909,19.092h2.769v5.579c0,2.899-2.203,6.181-6.095,6.181      c-7.367,0-8.037-9.299-8.037-14.818c0-5.025,0.506-14.818,8.595-14.818c3.12,0,6.474,2.776,7.135,8.513h0.53V0.72h-0.527      c-0.164,0.965-0.817,1.459-1.952,1.459c-1.058,0-2.412-1.583-5.207-1.583C4.473,0.596,0,9.781,0,16.034      C0,22.62,4.971,31.43,12.582,31.43c4.224,0,4.476-2.523,7.191-2.523c0.962,0,1.552,0.894,1.638,1.817h0.656V19.092h2.355v-0.62      h-8.513V19.092" style="fill: rgb(255, 255, 255);"/>
				<path clip-path="url(#SVGID_4_)" d="M97.49,19.092h2.768v5.579c0,2.899-2.202,6.181-6.095,6.181      c-7.367,0-8.037-9.299-8.037-14.818c0-5.025,0.506-14.818,8.595-14.818c3.121,0,6.475,2.776,7.135,8.513h0.531V0.72h-0.528      c-0.163,0.965-0.817,1.459-1.952,1.459c-1.058,0-2.412-1.583-5.207-1.583c-8.646,0-13.119,9.185-13.119,15.438      c0,6.585,4.971,15.396,12.582,15.396c4.224,0,4.475-2.523,7.191-2.523c0.961,0,1.551,0.894,1.637,1.817h0.657l-0.001-11.632      h2.356v-0.62H97.49V19.092" style="fill: rgb(255, 255, 255);"/>
			</g>
		</g>
	</g>
</g></g></svg>