<svg xmlns="http://www.w3.org/2000/svg" width="100%" height="100%" viewBox="0 0 335.1 97"><title>Artboard 1</title><polygon points="239.7 30.6 199 30.6 199 0 187.4 0 187.4 71.3 199 71.3 199 39.4 239.7 39.4 239.7 71.3 251.3 71.3 251.3 0 239.7 0 239.7 30.6" style="fill:#fff"/><path d="M55,97h1.8l1.6-4.1h5.8L65.8,97h1.8L61.3,82.1Zm4-5.4,2.3-5.9,2.3,5.9Z" style="fill:#fff"/><path d="M157.3,97h1.8l1.6-4.1h5.8l1.6,4.1H170l-6.3-14.9Zm4-5.4,2.3-5.9,2.3,5.9Z" style="fill:#fff"/><rect x="233.1" y="83" width="1.8" height="14.02" style="fill:#fff"/><rect x="86.1" width="11.6" height="71.26" style="fill:#fff"/><path d="M35.1,48.3C35.2,48.2,12,0,12,0H0L35,71.3,69.9,0h-12Z" style="fill:#fff"/><path d="M111.8,35.7c0,19.7,17.9,35.6,40,35.6a43.7,43.7,0,0,0,19.7-4.6V55.4a33.1,33.1,0,0,1-19.7,6.3c-17,0-29.5-10.9-29.5-26.1S134.8,9.6,151.8,9.6a33.1,33.1,0,0,1,19.7,6.3V4.6A43.7,43.7,0,0,0,151.8,0C129.7,0,111.8,16,111.8,35.7Z" style="fill:#fff"/><path d="M89.1,89.5a3.1,3.1,0,0,0,1.4-2.7q0-3.8-4.7-3.8H83.5V97h3.3a5.7,5.7,0,0,0,3.4-.9,3.4,3.4,0,0,0,1.5-3,3.7,3.7,0,0,0-.6-2.3A3.3,3.3,0,0,0,89.1,89.5Zm-4.3-5.2h.8a5.2,5.2,0,0,1,2.3.4,2.2,2.2,0,0,1,.9,2,1.6,1.6,0,0,1-1,1.7,5.3,5.3,0,0,1-2.3.4h-.8Zm1.8,11.3H84.8V90.2h1.6c2.5,0,3.6,1.1,3.6,2.8S89,95.7,86.6,95.7Z" style="fill:#fff"/><path d="M114.4,82.5a7.3,7.3,0,0,0-5.3,2.1,7.1,7.1,0,0,0,0,10.2,7.7,7.7,0,0,0,10.5,0,7.1,7.1,0,0,0,0-10.2A7.3,7.3,0,0,0,114.4,82.5Zm4.2,11.3a5.9,5.9,0,0,1-8.3,0,5.7,5.7,0,0,1,0-8.2,6,6,0,0,1,8.3,0,5.7,5.7,0,0,1,0,8.2Z" style="fill:#fff"/><path d="M210.1,82.5a7.3,7.3,0,0,0-5.3,2.1,7.1,7.1,0,0,0,0,10.2,7.7,7.7,0,0,0,10.5,0,7,7,0,0,0,0-10.2A7.3,7.3,0,0,0,210.1,82.5Zm4.2,11.3a5.9,5.9,0,0,1-8.3,0,5.7,5.7,0,0,1,0-8.2,6,6,0,0,1,8.3,0,5.7,5.7,0,0,1,0,8.2Z" style="fill:#fff"/><path d="M302.3,88.7l-.9-.4-1.4-.8a1.7,1.7,0,0,1-.7-1.4,2,2,0,0,1,.7-1.6,2.4,2.4,0,0,1,1.6-.6,2.7,2.7,0,0,1,2.4,1.5l1.2-.8a3.8,3.8,0,0,0-3.6-2.2,4,4,0,0,0-2.7,1,3.3,3.3,0,0,0-1.2,2.6,3.1,3.1,0,0,0,.9,2.3,6.9,6.9,0,0,0,2.1,1.3l.8.4a7.2,7.2,0,0,1,1.8,1,2.2,2.2,0,0,1,.8,1.8,2.5,2.5,0,0,1-.9,1.9,2.9,2.9,0,0,1-2,.8,2.6,2.6,0,0,1-1.9-.8,3.1,3.1,0,0,1-.9-1.8l-1.5.4a4.5,4.5,0,0,0,1.5,2.6,4.5,4.5,0,0,0,6-.3,4.1,4.1,0,0,0,1.3-3.1,3.3,3.3,0,0,0-1-2.5A7.9,7.9,0,0,0,302.3,88.7Z" style="fill:#fff"/><polygon points="275.6 97 283.3 97 283.3 95.5 277.2 95.5 277.2 90 282.8 90 282.8 88.6 277.2 88.6 277.2 84.4 283.3 84.4 283.3 83 275.6 83 275.6 97" style="fill:#fff"/><polygon points="36.7 83 35.1 83 35.1 97 40.5 97 40.5 95.5 36.7 95.5 36.7 83" style="fill:#fff"/><polygon points="181.9 84.4 185.3 84.4 185.3 97 186.9 97 186.9 84.4 190.3 84.4 190.3 83 181.9 83 181.9 84.4" style="fill:#fff"/><path d="M142.1,89.5a3.9,3.9,0,0,0,1-2.7q0-3.9-5.1-3.9h-2V97h1.6V90.8h.4l4.2,6.2H144l-4.5-6.3A3.7,3.7,0,0,0,142.1,89.5Zm-4.6-.1v-5h.5a5.8,5.8,0,0,1,2.5.4,2.2,2.2,0,0,1,1.1,2.1,2.1,2.1,0,0,1-1.1,2.1,5.2,5.2,0,0,1-2.4.4Z" style="fill:#fff"/><path d="M258.3,89.5a3.9,3.9,0,0,0,.9-2.7q0-3.9-5.1-3.9h-2V97h1.6V90.8h.4l4.2,6.2h1.9l-4.5-6.3A3.7,3.7,0,0,0,258.3,89.5Zm-4.6-.1v-5h.5a5.8,5.8,0,0,1,2.5.4,2.2,2.2,0,0,1,1.1,2.1,2.1,2.1,0,0,1-1.1,2.1,5.2,5.2,0,0,1-2.4.4Z" style="fill:#fff"/><polygon points="303.6 71.3 303.6 40.7 335.1 0 322.7 0 298.2 31.8 273.7 0 261.3 0 292.9 40.7 292.9 71.3 303.6 71.3" style="fill:#fff"/></svg>