<?xml version="1.0" encoding="utf-8"?>
<svg id="master-artboard" viewBox="0 0 1400 980" version="1.1" xmlns="http://www.w3.org/2000/svg" x="0px" y="0px" style="enable-background:new 0 0 336 235.2;" width="100%" height="100%"><g transform="matrix(2.393857765537049, 0, 0, 2.393857765537049, -0.0000042019337342935614, 104.69664528034417)"><g id="all"><path id="befree" class="cls-1" d="M584.83,144.88q0-27.29-16.78-43.79-17.33-17.2-47.84-17.19Q494,83.9,474.79,103a70.18,70.18,0,0,0-6.69,7.66,53.54,53.54,0,0,0-7.73-9.53Q443,83.89,412.53,83.9a61.37,61.37,0,0,0-39.16,13.48l4.73-11.11c-8.5-1.59-15-2.37-19.59-2.37q-27.28,0-41.16,25.42V86.54h-50.3a42.38,42.38,0,0,1-.68-7.46c0-9,2.54-16.37,7.55-22.23A24,24,0,0,1,293,48.06a44.31,44.31,0,0,1,14.42,2.64l7-18.64a78.16,78.16,0,0,0-23.69-4c-14.78,0-26.6,5.18-35.61,15.6s-13.45,24.69-13.45,42.88H220.94V101.8c-0.23-.24-0.45-0.48-0.69-0.71q-17.33-17.2-47.84-17.19Q146.15,83.9,127,103l-0.5.51-0.17.16-0.65.67h0l-0.6.64,0,0h0l-0.58.64,0,0a0,0,0,0,1,0,0l-0.58.64,0,0,0,0-1.12,1.29a1.29,1.29,0,0,1-.15.18l-0.42.52-0.15.18-0.45.56-0.12.15-0.48.61-0.08.11-0.46.6-0.11.14-0.47.64-0.07.1c-0.15.19-.28,0.38-0.42,0.57l-0.14.21-0.35.51-0.19.28-0.34.5c-0.06.11-.14,0.22-0.22,0.33l-0.29.44-0.16.26h0a68.61,68.61,0,0,0-7.75-10.44c-10.94-12.22-25-18.87-42-20l0,0-0.92,0L65,84H64.87c-0.85,0-1.69-.06-2.56-0.06s-1.7,0-2.55.08c-17.82.63-29.38,7.08-34.48,10.66V28.05H0V231.92H12.64l8.91-13a15.81,15.81,0,0,0,3.58,2.66c5.72,4.26,17.6,10.8,36.24,10.3v0q30.42-.35,48.37-20.44a63.66,63.66,0,0,0,7-9.56c0.68,1.06,1.39,2.09,2.13,3.11l0,0c0.36,0.49.71,1,1.09,1.44l0.09,0.12,0.52,0.67,0.14,0.19,0.33,0.41,0.26,0.31,0.39,0.46c0.06,0.08.14,0.15,0.19,0.23l0.3,0.34,0.31,0.36,0.22,0.25,0.15,0.18c0.08,0.08.16,0.16,0.23,0.25l0.24,0.27,0.43,0.46,0.17,0.18,0.47,0.5,0.13,0.14,0.5,0.52,0.15,0.15,0.32,0.32,0.16,0.17,0,0,0.13,0.13,0.52,0.51q18.82,18.28,45.7,18.28A97.09,97.09,0,0,0,206,226.33q12.14-4.3,18-10.14L213.33,198q-14.52,12.62-36.24,12.64c-12.73,0-23.1-3.92-31.2-11.73q-13.71-13.44-13.73-38.53H235a56.77,56.77,0,0,0,2-15.46q0-22-10.93-37h15.63V229.24h25.33V107.86h25V229.24h25.33V147.43c0-11.64,3.36-21.56,10.05-29.84s14.54-12.41,23.51-12.41a26.74,26.74,0,0,1,11.62,2.76q-16.87,20.28-16.9,51.63,0,34,20.92,54.07,18.82,18.28,45.71,18.28a97.05,97.05,0,0,0,33.83-5.59q12.16-4.3,18-10.14L453.46,198q-14.53,12.62-36.25,12.64c-12.73,0-23.1-3.92-31.19-11.73q-13.71-13.44-13.73-38.53h81q0.24,33.43,20.91,53.3,18.81,18.28,45.7,18.28a97,97,0,0,0,33.83-5.59q12.16-4.3,18-10.14L561.15,198Q546.6,210.57,524.9,210.6c-12.73,0-23.1-3.92-31.21-11.73Q480,185.42,480,160.34H582.83A56.46,56.46,0,0,0,584.83,144.88ZM89.75,197.48c-6.71,7.45-16.78,13-31.38,13.73-18.62.7-29.82-7-33.08-10.33V115.75c2.29-2.33,11.18-8.34,25-9.87A59.89,59.89,0,0,1,73,107.17c2.76,0.83,28.53,9.36,29.37,39.78,0.07,2.64.26,5.69,0.33,9.34C103.08,178.06,98.24,188.41,89.75,197.48ZM132.85,142a39.61,39.61,0,0,1,12.37-25.83c7.64-7.28,17.1-11,28.42-11q18.08,0,28.61,11.23,9.62,10.24,9.6,25.56h-79ZM373,142a39.68,39.68,0,0,1,12.37-25.83c7.64-7.28,17.1-11,28.42-11q18.09,0,28.6,11.23c6.42,6.82,9.59,15.33,9.59,25.56H373Zm107.69,0A39.76,39.76,0,0,1,493,116.14c7.66-7.28,17.12-11,28.43-11q18.08,0,28.61,11.23,9.61,10.24,9.6,25.56h-79Z" style="fill: rgb(255, 255, 255); fill-rule: evenodd;"/></g></g></svg>