<svg xmlns="http://www.w3.org/2000/svg" width="100%" height="100%" viewBox="0 0 386 93.52"><defs><style>.cls-1{fill:#fff;}</style></defs><title>Lancome_SVG_White</title><g id="Calque_2" data-name="Calque 2"><g id="Calque_1-2" data-name="Calque 1"><path class="cls-1" d="M150.76,93.21h2.59V88.08h4.85c2.26,0,6,0,6-4s-3.71-4.06-6-4.06h-7.45Zm2.59-7.37V82.2h5.42c1.49,0,2.8.12,2.8,1.81s-1.31,1.83-2.8,1.83Zm13.95,7.37h2.77l1.42-3h7.7l1.4,3h2.75L176.86,80h-3ZM172.58,88,175.37,82,178.16,88Zm17.27,5.26h2.6V88h4.15l3.9,5.23h3.2l-4.09-5.41a3.74,3.74,0,0,0,3.72-3.89c0-3.23-2.26-3.94-5.43-3.94h-8Zm2.6-7.37V82.1h5.06c2.13,0,3.22.31,3.22,1.87s-1.09,1.87-3.22,1.87Zm19-5.88h2.6V93.2h-2.6Zm21.07,4c-.42-1.16-1.5-2.19-4.67-2.19-1.78,0-3.55.45-3.55,1.66,0,.56.34,1.16,3,1.47l3.15.49c3,.45,4.76,1.6,4.76,3.81,0,3.11-3,4.3-6.57,4.3-5.73,0-7.13-2.82-7.44-3.82l2.51-.77c.48,1,1.48,2.36,5,2.36,2.14,0,3.9-.7,3.9-1.84,0-.85-1-1.41-2.91-1.65l-3.19-.43c-3.08-.41-4.79-1.75-4.79-3.76,0-3.95,5.18-3.95,6.2-3.95,5.76,0,6.73,2.63,7.07,3.53Zm100.23-24.8c1.1,9.17,5.92,7.81,6.16,8.61,0,0-18.61,0-18.62-.06-.09-.33,5.35-.1,4.26-8.16l-4.85-35.81c-.19-.94-.19-2-.74-1.78-.38.17-16.4,38.69-16.4,38.69-.23.63-.63,1-1.16.11-.38-.66-15-32.6-15-32.6-.72-1.6-2-4.16-2.21-4.61-.38-.8-1-.89-.91,1.79l-3.81,36.3c-.89,6.33,5.12,5.85,5,6.24H271.36c-.17-.31,4.42.28,5.44-6.37l4.34-40.06c-.32-7.77-5.8-7.35-5.8-8H289.2l.2.43,14.72,31.88c.21.38.33.58.44.79.43.92.38,1.55.89.34l14.43-33.48,13.33,0c.08.47-5.36.23-5.36,6.88ZM28.82,66c12.83-.17,12.23-9.85,13.08-9.77L39.69,67.86H0c0-.32,7.62-.44,7.73-5.82V21.4c0-6.64-7.17-6.82-6.85-7.28H23.29c-.48.51-7.76.53-7.76,7V63.29c0,3.1,3.14,2.61,5.76,2.71h7.53m84.55-3.74c.77,6.7,5.9,5,5.91,5.64H104.89c0-.65,5.76,0,5.67-6.06V21c.11-7.05-6.09-7.06-6.24-7.61h14.42l29.87,36.75-.09-29.83c-.2-7.21-5.75-6.7-5.84-7.08h15.07c-.06.36-6,.49-6.26,7.08l-.05,46.19s.53,3.51-1.62.74c-.94-1.2-35.9-45.18-35.9-45.18-.32-.37-.47,0-.5,1.13l0,38.46ZM64.94,41.35c-1.45,0-1.25-.84-.69-2.18,0,0,4.9-12.13,5.49-13.61.75-1.89,1.55-1.51,2.11.12l4.94,13.71c.49,1.51,1.09,2-.56,2H64.94M94,61,73.94,13.71c-1.46-1.62-2,.22-2,.22-2,4.55-20.34,48.43-20.34,48.43-2.5,5.85-5.75,5.16-5.75,5.56h13c0-.65-7,.42-4.61-5.67l6.95-16.9C61.93,44.28,62,44,63.69,44l13,0c1.59,0,1.67,0,2.35,1.57l6.57,16c1.91,6.4-3.93,6-3.85,6.44h18.45c.17-.56-2.81,1.27-6.16-6.88M241.77,4.11l-22,6.7L241.77,0l22.07,10.81Zm0,61.73h-.19c-10.55,0-17.52-9.86-17.52-25.22,0-17.59,7.13-26.11,17.69-26.11h0c10.54,0,17.72,8.53,17.72,26.11,0,15.28-7.26,25.1-17.72,25.21m.12-53.39a27.82,27.82,0,0,0-28.28,28.06c0,14.46,11,27.36,28.13,27.36S270.21,55,270.21,40.52a27.85,27.85,0,0,0-28.32-28.06M189.5,65.72c12.42-.2,18-8.77,19.09-9.16.55-.17-6.05,11.23-19.24,11.23-29.61,0-29.1-26.64-29.1-26.64.92-18.72,16.17-29.88,30.78-28.35a34.65,34.65,0,0,1,8.5,1.94c1.35.43,5,2.39,6.44,1.85,1-.38,1.76-2.5,2-2.63l.14,14.61c-1,0-4.3-14.05-18.4-14.05-11.55,0-20.32,13.13-20.13,26,.3,21.46,15.38,25.33,19.92,25.25M358.35,41l0,13.42v7c0,4.06-.33,4.56,2.33,4.58l14.66,0c3.58-.22,5.87-1.13,7.35-2.29,3.38-2.66,2.59-6.64,3.27-6.78l-.34,10.91H344.46c-.16-.39,6.13.65,6.13-8.29V21.95c0-9-5.8-7.6-5.72-8.31h40.79L386,24.41c-.82-.06,1.34-8.44-10.79-9.17H361.66c-2.34,0-3.29,0-3.29,4.46l0,11.59.05,2.58c0,2,0,2.17,2.84,2.17h13.09c6.6,0,5.71-5.91,6.29-5.91,0,0,0,14,0,14-.58,0,.28-6.49-6-6.29H361.39c-2.9-.05-3,1-3,3Z"/></g></g></svg>