<svg id="svg2" xmlns="http://www.w3.org/2000/svg" viewBox="0 0 300 149.1"><style>.st0{fill:#fff}</style><path id="path100" class="st0" d="M161.7.5c-1 .1-1.9 3.8-3.8 5.6-1.4 1.4-3.1 1.3-4 3-.4.6-.2 1.7-.6 2.7-.8 2.1-3.5 2.2-3.5 4.5 0 2.4 2.3 2.9 4.2 4.6 1.5 1.4 1.7 2.3 3.6 3 1.6.5 4-1.2 6.1-.6 1.8.5 3.4.9 3.8 2.7.4 1.7 0 4.2-2.2 3.9-.7-.1-3.8-1.1-7.6-.7-4.6.5-9.9 2-10.4 7.2-.3 2.9 3.3 6.3 6.7 5.6 2.4-.5 1.3-3.3 2.5-4.6 1.7-1.7 11.3 6.1 20.2 6.1 3.8 0 6.6-1 9.3-3.9.3-.2.6-.7 1-.7s1 .4 1.3.6c7.2 5.8 12.6 17.4 39 17.5 3.7 0 7.9 1.8 11.4 4.9 3.1 2.8 4.9 7.3 6.6 11.8 2.6 6.7 7.4 13.3 14.6 20.6.4.4 6.3 5 6.8 5.3.1.1.5 1.1.4 1.7-.2 4.4-.8 17.1 8.7 17.7 2.3.1 1.7-1.5 1.7-2.6 0-2.2-.4-4.4.8-6.7 1.6-3.1-3.4-4.6-3.2-11.3.1-5-4.1-4.2-6.3-8-1.2-2.2-2.3-3.4-2.3-6.1.5-15.3-3.3-25.3-5.1-27.8-1.5-1.9-2.7-2.6-1.3-3.5 7.9-5.2 9.7-10.1 9.7-10.1C274 33 277.8 24 283 20c1.1-.8 3.8-2.8 5.4-3.6 4.9-2.3 7.4-3.7 8.9-5.1 2.2-2.2 4-6.7 1.9-9.5-2.7-3.4-7.3-.7-9.3.5-14.6 8.6-16.7 23.9-21.8 32.6-4 7-10.6 12.1-16.4 12.6-4.4.3-9.1-.6-13.8-2.6-11.5-5-17.7-11.5-19.2-12.6-3.1-2.4-27-25.8-46.3-26.8 0 0-2.4-4.8-3-4.9-1.4-.2-2.9 2.9-3.9 3.2-1.2.2-2.8-3.5-3.8-3.3"/><path id="path102" class="st0" d="M76.5 140.4c-1.8 0-3.4-1.5-3.4-3.4V76.6H53.2v66.5c0 3.3 2.6 5.9 5.9 5.9h34.8c3.3 0 5.9-2.7 5.9-5.9V76.7H79.9v60.4c0 1.8-1.6 3.3-3.4 3.3"/><path id="path104" class="st0" d="M143.1 76.7H113c-3.6 0-6.5 2.9-6.5 6.5v66h19.9V88.6c0-1.9 1.5-3.3 3.4-3.3s3.3 1.4 3.4 3.3v60.6H153V88.6c0-1.8 1.5-3.3 3.4-3.3 1.8 0 3.4 1.5 3.4 3.3v60.5h19.9v-66c0-3.6-2.9-6.5-6.5-6.5l-30.1.1"/><path id="path106" class="st0" d="M40 130.9H19.9v18.2H0V76.7h40.1c3.6 0 6.4 2.9 6.4 6.5v41.2c0 3.6-2.9 6.5-6.5 6.5zM26.6 88.8c0-2-1.6-3.4-3.4-3.4h-3.4V122h3.4c1.8 0 3.4-1.4 3.4-3.4V88.8"/><path id="path112" class="st0" d="M213.1 149.1V131h-6.8v18.2h-19.9v-66c0-3.6 2.9-6.5 6.5-6.5h33.6c3.6 0 6.5 2.9 6.5 6.5v66h-19.9zm0-27.1V88.6c0-1.8-1.5-3.3-3.4-3.3-1.8 0-3.4 1.5-3.4 3.3V122h6.8"/></svg>