<svg xmlns="http://www.w3.org/2000/svg" width="100%" height="100%" viewBox="0 0 149 38"><path fill-rule="evenodd" clip-rule="evenodd" fill="none" d="M-885.5-56h1920V94h-1920V-56z"/><path fill-rule="evenodd" clip-rule="evenodd" fill="#FFF" d="M103.641 23.976H100.1l10.389-20.424h4.08l10.391 20.424h-3.58l-2.732-5.372h-12.273l-2.734 5.372zm13.716-7.903l-4.848-9.532-4.85 9.532h9.698zM87.43 3.017L89.852.224h5.385L87.43 3.017zm-6.914 21h18.266v-2.319H83.666v-7.052h11.221v-2.399H83.666v-6.4h15.02V3.574h-18.17v20.443zM55.696 3.552H69.151c3.589 0 6.526 2.666 6.526 5.925 0 2.84-2.231 5.23-5.18 5.797l6.319 8.702H73.11l-6.226-8.575h-8.347v8.575h-2.841V3.552zm13.608 2.43l.188.026.184.035.18.045.177.054.172.063.167.071.162.079.158.087.153.095.146.101.141.108.135.114.128.12.121.124.114.128.107.133.101.137.093.14.085.143.078.146.071.148.062.148.055.15.048.152.041.153.033.155.026.156.019.159.011.161.004.164-.004.165-.01.16-.019.158-.026.156-.033.155-.041.153-.048.151-.055.149-.062.148-.071.148-.078.146-.085.143-.093.139-.101.138-.107.133-.114.128-.121.124-.128.12-.135.114-.141.108-.146.101-.153.095-.158.087-.162.079-.167.071-.172.063-.177.054-.18.045-.184.036-.188.026-.192.016-.221.006H58.688V5.96h10.197l.227.006.192.016zM38.222 2.354c-5.768 0-10.445 4.676-10.445 10.442s4.678 10.443 10.445 10.443 10.445-4.677 10.445-10.443S43.99 2.354 38.222 2.354zm0-2.354c-7.679 0-13.906 5.73-13.906 12.796s6.228 12.796 13.906 12.796 13.906-5.73 13.906-12.796S45.901 0 38.222 0zM4 24.017V3.574h2.607V21.78h15.45v2.237H4zm122.467 0h18.32v-2.325h-15.449V3.574h-2.871v20.443zM60.699 37.298h-1.556l4.566-7.947H65.502l4.565 7.947h-1.573l-1.201-2.091H61.9l-1.201 2.091zm6.029-3.075l-2.131-3.709-2.131 3.709h4.262zm6.295-4.872h5.654c1.508 0 2.742 1.037 2.742 2.305 0 1.105-.938 2.035-2.176 2.256l2.654 3.387H80.34l-2.617-3.337h-3.207v3.337h-1.495v-7.948h.002zm5.719.945l.078.01.078.015.076.018.074.021.072.024.07.027.068.031.066.034.064.037.061.039.059.042.057.044.055.047.051.048.047.05.047.053.041.053.039.055.037.056.031.057.029.058.027.058.023.058.02.06.018.06.014.06.012.062.008.062.004.062.002.063-.002.064-.004.062-.008.062-.012.061-.014.061-.018.061-.02.059-.023.058-.026.052-.029.058-.031.056-.037.056-.039.055-.041.054-.047.052-.047.05-.051.048-.055.047-.057.044-.059.042-.061.04-.064.036-.065.032-.068.031-.07.027-.072.024-.074.021-.076.019-.078.014-.078.01-.082.006-.092.003h-3.988v-2.737h3.986l.094.003.08.005zm-28.598-.945h5.655c1.508 0 2.742 1.037 2.742 2.305 0 .795-.484 1.499-1.217 1.914-.503.284-1.002.363-1.577.385-.292.011-.594.011-.902.007h-3.207v3.337h-1.495v-7.948h.001zm5.718.945l.08.01.077.015.076.018.074.021.073.024.07.027.068.031.066.034.064.037.062.039.059.042.057.044.054.047.051.048.048.05.045.053.042.053.039.055.036.056.033.057.03.058.026.058.023.058.021.06.017.06.014.06.011.062.008.062.004.062.002.063-.002.064-.004.062-.008.062-.011.061-.014.061-.017.061-.021.059-.023.058-.028.052-.03.058-.033.056-.036.056-.039.055-.042.054-.045.052-.048.05-.051.048-.054.047-.057.044-.059.042-.06.038-.064.036-.066.034-.068.031-.07.027-.073.024-.074.021-.076.019-.077.014-.08.01-.081.006-.093.003h-3.987v-2.737h3.985l.095.003.081.005zm34.585 4.448l1.373-.087c.064.397.215.724.453.979.238.256.607.461 1.105.618.5.157 1.062.235 1.689.235.555 0 1.045-.06 1.469-.178.426-.12.742-.283.951-.49.207-.209.312-.436.312-.682 0-.249-.1-.466-.303-.652-.199-.188-.529-.343-.988-.469-.297-.083-.947-.213-1.959-.389-1.01-.175-1.719-.34-2.123-.495-.525-.198-.918-.446-1.176-.74a1.47 1.47 0 0 1-.385-.99c0-.399.156-.775.471-1.123.316-.35.777-.614 1.381-.796a7.069 7.069 0 0 1 2.018-.27c.818 0 1.535.094 2.16.284.621.189 1.102.469 1.436.837s.516.786.541 1.253l-1.396.075a1.526 1.526 0 0 0-.762-1.138c-.434-.257-1.07-.385-1.916-.385-.881 0-1.521.116-1.926.35-.402.233-.605.515-.605.842 0 .287.145.521.428.705.283.186 1.012.374 2.195.566 1.184.194 1.994.362 2.436.507.641.215 1.113.484 1.418.811.305.327.457.705.457 1.13 0 .424-.166.822-.502 1.195-.336.374-.816.665-1.445.874-.627.207-1.334.311-2.117.311-.996 0-1.832-.104-2.502-.314-.674-.209-1.201-.523-1.586-.945-.381-.42-.584-.898-.602-1.429zm-4.914 2.554v-5.616H87v5.616h-1.467zm0-6.461v-1.486H87v1.486h-1.467zM16.737 10.736h2.408l3.612-7.015h-3.064l-2.956 7.015z"/></svg>