<?xml version="1.0" encoding="utf-8"?>
<!-- Generator: Adobe Illustrator 13.0.0, SVG Export Plug-In . SVG Version: 6.00 Build 14948)  -->
<!DOCTYPE svg PUBLIC "-//W3C//DTD SVG 1.0//EN" "http://www.w3.org/TR/2001/REC-SVG-20010904/DTD/svg10.dtd">
<svg version="1.0" id="Layer_1" xmlns="http://www.w3.org/2000/svg" xmlns:xlink="http://www.w3.org/1999/xlink" x="0px" y="0px"
	 width="100%" height="100%" viewBox="0 0 182.756 99.756" enable-background="new 0 0 182.756 99.756"
	 xml:space="preserve">
<g>
	<polygon fill-rule="evenodd" clip-rule="evenodd" fill="none" points="0,0 182.756,0 182.756,99.756 0,99.756 0,0 	"/>
	<path fill-rule="evenodd" clip-rule="evenodd" fill="#fff" d="M178.252,50.378c0,25.446-39.349,46.075-87.87,46.075
		c-48.536,0-87.878-20.629-87.878-46.075S41.846,4.303,90.382,4.303C138.903,4.303,178.252,24.932,178.252,50.378L178.252,50.378z"
		/>
	<path fill-rule="evenodd" clip-rule="evenodd" fill="#232323" d="M174.616,50.344c0,23.371-37.729,42.314-84.266,42.314
		c-46.54,0-84.268-18.943-84.268-42.314c0-23.368,37.728-42.313,84.268-42.313C136.887,8.031,174.616,26.976,174.616,50.344
		L174.616,50.344z M90.35,11.363c-44.714,0-80.964,17.453-80.964,38.981c0,21.529,36.25,38.982,80.964,38.982
		c44.712,0,80.961-17.453,80.961-38.982C171.312,28.816,135.063,11.363,90.35,11.363L90.35,11.363z"/>
	<path fill-rule="evenodd" clip-rule="evenodd" fill="#232323" d="M169.216,50.344c0,20.373-35.31,36.886-78.866,36.886
		c-43.558,0-78.867-16.514-78.867-36.886c0-20.37,35.31-36.884,78.867-36.884C133.906,13.46,169.216,29.974,169.216,50.344
		L169.216,50.344z M140.895,33.076h-13.526l-1.647,4.71h8.755l-9.986,3.458l-0.66,1.91l15.366-5.039L140.895,33.076L140.895,33.076z
		 M54.654,41.342h-5.51c0,0,5.106-13.611,5.516-14.64c0.728-1.823,1.164-1.698,1.164-1.698h-7.61
		c0.941,0.451,0.107,2.228,0.107,2.228s-6.095,16.974-6.52,17.822c-0.425,0.849-0.743,0.956-0.743,0.956h13.18l1.843-5.027
		C55.922,41.462,54.654,41.342,54.654,41.342L54.654,41.342z M77.772,45.989h6.208c0,0-0.425-0.63-0.16-1.319
		c0.368-0.957,3.661-9.919,3.661-9.919l1.432,11.238h5.623l7.371-19.991c0,0,0.302-0.938,0.713-0.938l-5.975-0.018
		c0,0,0.171,0.69-0.042,1.221c-0.211,0.531-3.607,9.601-3.607,9.601l-1.326-10.822h-6.417c0,0,0.332,0.53,0.12,1.113
		c-0.173,0.473-6.804,18.672-6.804,18.672S78.144,45.989,77.772,45.989L77.772,45.989z M106.152,25.049c0,0,0.529,0.849-0.161,2.811
		c-0.689,1.963-6.1,16.55-6.1,16.55s-0.426,1.372-1.008,1.639l8.487-0.009c0,0,10.289,0.38,13.473-10.435
		c0,0,4.031-10.662-7.639-10.555H106.152L106.152,25.049z M107.053,41.208c0,0,0.027-0.008,0.98-0.008
		c1.443,0,4.118-0.318,5.915-4.694c2.953-7.191-1.167-6.948-1.167-6.948h-1.592L107.053,41.208L107.053,41.208z M31.573,62.926
		h13.525l1.646-4.711h-8.754l9.986-3.457l0.662-1.91l-15.368,5.041L31.573,62.926L31.573,62.926z M55.276,71.613
		c-0.213,0-0.213-0.684-0.213-0.684l2.488-6.602c0,0,3.099,6.082,3.312,6.506c0.212,0.424,0.105,0.779,0.105,0.779h7.414
		c-0.708,0-1.437-1.344-1.437-1.344l-3.691-6.625c5.163,0,6.814-5.117,6.814-5.117c2.546-8.132-6.022-7.92-6.022-7.92h-8.769
		c0.636,0.707,0.14,2.193,0.14,2.193s-5.445,15.568-5.869,16.771c-0.425,1.201-1.203,2.041-1.203,2.041S55.637,71.613,55.276,71.613
		L55.276,71.613z M60.531,55.438l-1.437,4.223h1.344c0,0,2.618,0.23,3.583-1.85c0,0,1.13-2.385-2.028-2.385
		C61.302,55.426,60.531,55.438,60.531,55.438L60.531,55.438z M131.992,71.691c-0.529,0.012-0.16-1.287-0.16-1.287l2.22-6
		c0,0,2.992,6.084,3.202,6.508c0.213,0.426,0.107,0.777,0.107,0.777h7.678c-0.708,0-1.486-1.344-1.486-1.344l-3.692-6.623
		c5.165,0,6.719-4.934,6.719-4.934c2.712-8.516-5.925-8.104-5.925-8.104h-8.699c0.638,0.708,0.143,2.192,0.143,2.192
		s-5.673,15.629-6.099,16.832c-0.424,1.203-1.238,1.971-1.238,1.971L131.992,71.691L131.992,71.691z M137.049,59.736
		c0,0,2.598,0.197,3.393-1.838c0.938-2.398-1.403-2.334-1.403-2.334h-1.92l-1.414,4.172H137.049L137.049,59.736z M79.237,72.135
		c7.653,0,12.208-7.508,12.208-12.895c0-5.648-2.322-9.174-7.626-9.174c-6.766,0-11.179,5.135-12.319,11.516
		C70.454,67.453,73.769,72.135,79.237,72.135L79.237,72.135z M79.719,67.17c1.909,0.354,4.008-1.021,5.104-5.41
		c1.662-6.643-1.401-6.699-1.961-6.768c-1.693-0.205-3.955,1.746-4.873,5.813C77.568,62.662,77.122,66.688,79.719,67.17
		L79.719,67.17z M93.262,50.685c0,0,0.526,0.283,0.526,1.625c0,1.344,0,18.178,0,18.178s-0.073,0.994-0.448,1.201h5.687
		c0,0,0-0.424,0.563-1.131c0.566-0.707,12.378-16.549,12.378-16.549s2.693-3.325,3.399-3.325h-8.139c0,0,0.638,0.424,0.143,1.202
		c-0.495,0.779-7.73,11.6-7.73,11.6l0.092-10.914c0,0-0.013-1.75,0.689-1.897L93.262,50.685L93.262,50.685z M127.642,55.641
		l1.839-4.96l-13.79,0.001c0,0,0.494,0.437-0.141,2.205c-0.638,1.768-6.225,16.828-6.225,16.828s-0.99,1.98-1.271,1.98
		c-0.284,0,14.214,0,14.214,0l1.698-5.021c0,0-0.212,0.283-1.556,0.283c-1.347,0-6.013,0-6.013,0l1.274-3.395h4.666
		c0,0,0.99-0.07,1.203,0.213l1.909-5.365c0,0-0.14,0.484-1.415,0.484c-1.272,0-4.526,0-4.526,0l1.346-3.746h5.728
		C126.582,55.148,127.36,55.041,127.642,55.641L127.642,55.641z M55.749,46.008h6.803c0,0-0.021-0.522,0.156-0.861
		c0.323-0.613,1.167-2.092,1.167-2.092h6.847l0.014,1.845c0,0,0.035,0.636-0.469,1.126h6.79c0,0-0.504-0.283-0.597-1.118
		l-0.852-18.458c0,0-0.037-1.18,0.525-1.428h-6.736c0,0,0.472,0.583-0.43,1.909c-0.901,1.326-12.408,18.388-12.408,18.388
		S56.331,45.756,55.749,46.008L55.749,46.008z M70.592,32.165l-3.781,6.152h3.835L70.592,32.165L70.592,32.165z"/>
</g>
</svg>
